[img]http://i.imgur.com/6Vx7U.jpg[/img]

[code]

Compliance.2012.720p.BDRip.XViD.AC3-26k
 
http://www.imdb.com/title/tt1971352/

Plot:

When a prank caller convinces a fast food restaurant manager to interrogate an innocent young employee, 
no-one is left unharmed. Based on true events.

Sources - VIDEO: Compliance.2012.1080p.BluRay.AVC.DTS-HD.MA.5.1 ..... thanks .... :P
          AUDIO: Compliance.2012.1080p.BluRay.AVC.DTS-HD.MA.5.1 ..... thanks .... :P

Format                                   : AVI
Format/Info                              : Audio Video Interleave
Format profile                           : OpenDML
File size                                : 2.60 GiB
Duration                                 : 1h 29mn
Overall bit rate                         : 4 151 Kbps
Writing library                          : VirtualDub build 32839/release

Video
ID                                       : 0
Format                                   : MPEG-4 Visual
Format profile                           : Advanced Simple@L5
Format settings, BVOP                    : 2
Format settings, QPel                    : No
Format settings, GMC                     : No warppoints
Format settings, Matrix                  : Default (H.263)
Codec ID                                 : XVID
Codec ID/Hint                            : XviD
Duration                                 : 1h 29mn
Bit rate                                 : 3 499 Kbps
Width                                    : 1 280 pixels
Height                                   : 528 pixels
Display aspect ratio                     : 2.40:1
Frame rate                               : 23.976 fps
Color space                              : YUV
Chroma subsampling                       : 4:2:0
Bit depth                                : 8 bits
Scan type                                : Progressive
Compression mode                         : Lossy
Bits/(Pixel*Frame)                       : 0.216
Stream size                              : 2.19 GiB (84%)
Writing library                          : XviD 1.2.1 (UTC 2008-12-04)

Audio
ID                                       : 1
Format                                   : AC-3
Format/Info                              : Audio Coding 3
Mode extension                           : CM (complete main)
Format settings, Endianness              : Big
Codec ID                                 : 2000
Duration                                 : 1h 29mn
Bit rate mode                            : Constant
Bit rate                                 : 640 Kbps
Channel(s)                               : 6 channels
Channel positions                        : Front: L C R, Side: L R, LFE
Sampling rate                            : 48.0 KHz
Bit depth                                : 16 bits
Compression mode                         : Lossy
Stream size                              : 411 MiB (15%)
Alignment                                : Split accross interleaves
Interleave, duration                     : 42 ms (1.00 video frame)
Interleave, preload duration             : 500 ms

Notes -

Took the BD made a script to make magic happen and this is the outcome.. enjoy

[/code]

Screens:

[img]http://i.imgur.com/2k36e.jpg[/img]
[img]http://i.imgur.com/S0R3q.jpg[/img]
[img]http://i.imgur.com/Pq2ZV.jpg[/img]
[img]http://i.imgur.com/JISBn.jpg[/img]
[img]http://i.imgur.com/y5lUm.jpg[/img]
[img]http://imageshack.us/a/img404/1396/56447562.png[/img]
[img]http://imageshack.us/a/img521/927/25272410.png[/img]
[img]http://imageshack.us/a/img850/4338/86743945.png[/img]
[img]http://imageshack.us/a/img690/3046/30364581.png[/img]
[img]http://imageshack.us/a/img812/6148/42535142.png[/img]

Greetz:
XtremeEncode|CM8|RX|VISION|HDSCENE|xTriLL|ADTRG|CRYS|REMIXHD|HS|Tommiecook
BIDA|RX|REFILL|INSPiRAL|AXED|HOPE|Anonymous|GooN|NOIR|Blackjesus|Gabroo Punjab Deh
|UNiQUE|RESiSTANCE|TRiNiTY|LEGION

To all the people who have helped me, you know who you are

Anything to offer email us @: 26k@hushmail.me 